<?xml version="1.0" standalone="no"?>
<!DOCTYPE svg PUBLIC "-//W3C//DTD SVG 20010904//EN"
 "http://www.w3.org/TR/2001/REC-SVG-20010904/DTD/svg10.dtd">
<svg version="1.0" xmlns="http://www.w3.org/2000/svg"
 width="972.000000pt" height="1024.000000pt" viewBox="0 0 972.000000 1024.000000"
 preserveAspectRatio="xMidYMid meet">

<g transform="translate(0.000000,1024.000000) scale(0.100000,-0.100000)"
fill="#000000" stroke="none">
<path d="M4650 10234 c-155 -19 -341 -49 -425 -69 -795 -188 -1475 -726 -1841
-1455 -215 -429 -306 -850 -290 -1350 16 -511 171 -995 456 -1422 124 -187
202 -282 364 -443 695 -691 1687 -956 2651 -710 358 91 733 280 1035 521 125
100 353 332 454 464 382 497 577 1075 576 1705 -1 611 -191 1172 -564 1670
-102 135 -346 386 -476 489 -387 306 -853 506 -1335 575 -134 19 -521 35 -605
25z"/>
<path d="M2585 3909 c-651 -42 -1283 -327 -1754 -792 -416 -410 -678 -905
-787 -1487 -33 -178 -43 -421 -44 -1102 l0 -528 4861 0 4862 0 -6 702 c-4 414
-11 736 -17 783 -70 519 -276 998 -603 1405 -105 131 -330 350 -465 453 -251
192 -553 350 -842 442 -317 100 -590 135 -1056 135 l-232 0 -35 -74 c-145
-306 -427 -504 -877 -615 -448 -110 -1045 -107 -1493 8 -416 108 -692 302
-833 586 l-47 95 -256 -1 c-141 -1 -310 -5 -376 -10z"/>
</g>
</svg>
