<svg width="16" height="17" viewBox="0 0 16 17" fill="none" xmlns="http://www.w3.org/2000/svg">
<path d="M7.99992 5.16732C6.15992 5.16732 4.66659 6.66065 4.66659 8.50065C4.66659 10.3407 6.15992 11.834 7.99992 11.834C9.83992 11.834 11.3333 10.3407 11.3333 8.50065C11.3333 6.66065 9.83992 5.16732 7.99992 5.16732ZM7.99992 1.83398C4.31992 1.83398 1.33325 4.82065 1.33325 8.50065C1.33325 12.1807 4.31992 15.1673 7.99992 15.1673C11.6799 15.1673 14.6666 12.1807 14.6666 8.50065C14.6666 4.82065 11.6799 1.83398 7.99992 1.83398ZM7.99992 13.834C5.05325 13.834 2.66659 11.4473 2.66659 8.50065C2.66659 5.55398 5.05325 3.16732 7.99992 3.16732C10.9466 3.16732 13.3333 5.55398 13.3333 8.50065C13.3333 11.4473 10.9466 13.834 7.99992 13.834Z" fill="#336699"/>
</svg>
